<svg version="1.1" id="Layer_1" xmlns="http://www.w3.org/2000/svg" xmlns:xlink="http://www.w3.org/1999/xlink" x="0px" y="0px"
	 width="100%" viewBox="0 0 500 500" enable-background="new 0 0 500 500" xml:space="preserve">
<path fill="#F3F4F6" opacity="1.000000" stroke="none" 
	d="
M189.801376,427.801117 
	C201.716705,412.521423 212.140488,396.301636 218.788910,378.032166 
	C222.686768,367.321136 225.434418,356.191589 228.699448,345.250305 
	C228.268463,345.017395 227.837479,344.784454 227.406494,344.551544 
	C226.041641,345.627045 224.663574,346.686249 223.313812,347.780396 
	C165.730225,394.457672 76.976807,370.157715 52.433224,300.248505 
	C39.929863,264.634247 45.146770,230.838760 71.518913,202.758575 
	C85.465439,187.908783 101.129257,174.405045 117.301476,161.962036 
	C167.197922,123.571373 209.940704,78.407707 247.493866,28.104866 
	C248.161072,27.211132 248.938721,26.399862 249.934814,25.234207 
	C256.035675,33.070499 261.898651,40.672379 267.835968,48.215710 
	C303.886841,94.018150 345.456085,134.116684 391.898315,169.329666 
	C403.530060,178.148987 414.311554,188.225525 424.721252,198.497116 
	C468.639343,241.832336 459.075714,308.489563 417.244415,344.610809 
	C377.855682,378.622925 321.570984,380.864075 279.358704,350.001831 
	C278.343353,349.259460 277.241058,348.636017 274.836823,347.098694 
	C282.154602,385.503479 299.991821,416.483917 327.271027,443.126068 
	C276.392670,443.126068 226.113297,443.126068 175.833908,443.126068 
	C175.411667,442.721100 174.989441,442.316162 174.567200,441.911194 
	C178.022110,438.941681 181.477005,435.972198 185.531738,432.949036 
	C186.385193,432.926208 186.638824,432.957092 187.099304,433.381104 
	C188.291382,433.887299 189.276550,434.098724 190.261810,434.099121 
	C230.249893,434.115540 270.237976,434.115479 310.226074,434.095703 
	C311.110168,434.095276 311.994141,433.842590 313.751190,433.574188 
	C284.549835,406.437378 270.710083,372.832153 266.144012,334.031830 
	C267.686279,335.447693 268.649384,336.349121 269.630676,337.230255 
	C301.031677,365.427551 337.074371,372.123444 376.574829,358.870422 
	C414.307587,346.210449 450.365601,308.229889 443.758240,251.273529 
	C441.178101,229.032516 429.727539,210.977875 413.519226,196.400696 
	C395.457245,180.156403 376.358246,165.054611 357.541626,149.662109 
	C318.093048,117.392151 284.373566,79.752319 253.571854,39.347187 
	C252.523987,37.972599 251.372040,36.677357 249.961197,34.973965 
	C248.309555,37.124485 247.101166,38.684032 245.907181,40.254539 
	C211.472092,85.548340 173.031540,126.907745 127.684433,161.604904 
	C110.493698,174.758316 93.304527,187.998077 78.901894,204.370209 
	C54.289608,232.348099 49.081913,264.519226 61.842003,298.587006 
	C87.576309,367.294434 175.583923,387.404785 229.976212,337.806427 
	C231.204926,336.686005 232.471329,335.606903 233.720154,334.508545 
	C234.117722,334.765594 234.515289,335.022614 234.912857,335.279663 
	C231.642365,348.508575 229.249420,362.034119 224.900803,374.898590 
	C217.945618,395.474121 206.886993,413.829041 190.600143,428.602295 
	C190.156433,428.157104 189.978897,427.979126 189.801376,427.801117 
M275.136078,347.569580 
	C275.338562,347.653900 275.541046,347.738220 275.743530,347.822571 
	C275.690582,347.615143 275.637634,347.407715 275.136078,347.569580 
z"/>
<path fill="#C4D0DD" opacity="1.000000" stroke="none" 
	d="
M186.892456,432.987946 
	C186.638824,432.957092 186.385193,432.926208 185.780441,432.741821 
	C186.371445,431.405884 187.313583,430.223480 188.701385,429.148773 
	C189.408981,429.496857 189.670914,429.737213 189.832977,430.276306 
	C188.786209,431.379333 187.839340,432.183624 186.892456,432.987946 
z"/>
<path fill="#F3F4F6" opacity="1.000000" stroke="none" 
	d="
M189.932861,429.977600 
	C189.670914,429.737213 189.408981,429.496857 189.005005,429.027588 
	C188.904709,428.453491 189.062164,428.173401 189.568359,427.879730 
	C189.978897,427.979126 190.156433,428.157104 190.507294,428.833649 
	C190.489929,429.615173 190.240677,429.830322 189.932861,429.977600 
z"/>
<path fill="#134984" opacity="1.000000" stroke="none" 
	d="
M189.832977,430.276306 
	C190.240677,429.830322 190.489929,429.615173 190.773468,429.100830 
	C206.886993,413.829041 217.945618,395.474121 224.900803,374.898590 
	C229.249420,362.034119 231.642365,348.508575 234.912857,335.279663 
	C234.515289,335.022614 234.117722,334.765594 233.720154,334.508545 
	C232.471329,335.606903 231.204926,336.686005 229.976212,337.806427 
	C175.583923,387.404785 87.576309,367.294434 61.842003,298.587006 
	C49.081913,264.519226 54.289608,232.348099 78.901894,204.370209 
	C93.304527,187.998077 110.493698,174.758316 127.684433,161.604904 
	C173.031540,126.907745 211.472092,85.548340 245.907181,40.254539 
	C247.101166,38.684032 248.309555,37.124485 249.961197,34.973965 
	C251.372040,36.677357 252.523987,37.972599 253.571854,39.347187 
	C284.373566,79.752319 318.093048,117.392151 357.541626,149.662109 
	C376.358246,165.054611 395.457245,180.156403 413.519226,196.400696 
	C429.727539,210.977875 441.178101,229.032516 443.758240,251.273529 
	C450.365601,308.229889 414.307587,346.210449 376.574829,358.870422 
	C337.074371,372.123444 301.031677,365.427551 269.630676,337.230255 
	C268.649384,336.349121 267.686279,335.447693 266.144012,334.031830 
	C270.710083,372.832153 284.549835,406.437378 313.751190,433.574188 
	C311.994141,433.842590 311.110168,434.095276 310.226074,434.095703 
	C270.237976,434.115479 230.249893,434.115540 190.261810,434.099121 
	C189.276550,434.098724 188.291382,433.887299 187.099304,433.381104 
	C187.839340,432.183624 188.786209,431.379333 189.832977,430.276306 
M247.186508,205.796997 
	C248.181534,203.328369 249.176559,200.859741 249.927643,198.996307 
	C255.941788,198.996307 261.863983,199.113663 267.779449,198.964249 
	C274.048157,198.805923 279.292877,195.403183 278.726318,191.120972 
	C278.288025,187.808029 276.473450,183.930054 273.995850,181.756180 
	C258.799164,168.422119 240.713150,162.807251 220.707275,164.221725 
	C212.546448,164.798706 207.501999,170.886597 214.019150,179.140060 
	C215.899796,181.521759 217.349655,184.243607 218.167358,186.862213 
	C211.866791,186.574493 205.555801,185.896561 199.267410,186.064484 
	C166.535782,186.938568 141.102753,209.644867 137.639832,242.083923 
	C134.594177,270.614136 148.076035,296.194427 179.351196,304.159271 
	C191.483170,307.248962 203.702271,307.038452 215.888580,306.683319 
	C214.662109,308.080627 213.435638,309.477936 212.209167,310.875244 
	C224.283371,311.283600 235.981033,311.434998 245.629013,304.078644 
	C244.486267,301.815033 243.593063,300.045715 243.222687,297.771332 
	C244.296463,290.580566 245.370255,283.389832 246.444031,276.199097 
	C246.014191,276.113739 245.584351,276.028381 245.154510,275.943024 
	C242.229782,280.358917 239.305054,284.774811 235.708725,288.679169 
	C236.457230,283.275024 237.205750,277.870850 237.993637,272.182465 
	C236.305588,273.380524 234.590103,274.598083 231.824020,276.561279 
	C233.524261,271.981812 235.004318,268.844330 235.801285,265.541992 
	C236.308701,263.439392 235.015930,260.710022 235.885376,258.919769 
	C240.022659,250.400726 239.434006,241.574265 238.355194,232.665283 
	C237.719055,227.411987 236.865494,222.184998 236.726624,217.259491 
	C247.660339,235.105850 258.589844,252.954773 269.530487,270.796906 
	C272.546509,275.715485 274.104340,275.707001 277.060699,270.720215 
	C289.280701,250.107468 301.481415,229.483276 313.694763,208.866577 
	C314.548615,207.425217 315.447235,206.010422 316.325043,204.583267 
	C317.089905,232.499390 317.069122,259.978973 317.105072,287.458496 
	C317.113678,294.040985 316.785828,300.426117 310.719940,304.745819 
	C310.621185,304.816132 310.848419,305.344299 310.907410,305.591156 
	C319.786652,305.591156 328.636139,305.591156 339.250366,305.591156 
	C329.818298,300.012604 331.055084,291.992462 331.019073,284.519318 
	C330.909149,261.698090 330.929901,238.875778 331.029419,216.054459 
	C331.048248,211.744431 331.430786,207.402542 332.064575,203.137604 
	C332.771820,198.378326 334.661133,194.206818 339.478851,192.014664 
	C340.218170,191.678284 340.597870,190.551590 341.629059,189.114059 
	C335.921814,189.114059 331.251068,189.348297 326.617310,189.034927 
	C323.311432,188.811356 321.588257,190.049347 319.954926,192.848526 
	C309.723541,210.382843 299.297302,227.803528 288.926270,245.256256 
	C285.888092,250.369003 282.819580,255.463684 279.474335,261.052185 
	C268.287292,242.423141 257.412720,224.314453 247.186508,205.796997 
z"/>
<path fill="#000000" opacity="1.000000" stroke="none" 
	d="
M275.360382,347.384949 
	C275.637634,347.407715 275.690582,347.615143 275.743530,347.822571 
	C275.541046,347.738220 275.338562,347.653900 275.360382,347.384949 
z"/>
<path fill="#D1D8D8" opacity="1.000000" stroke="none" 
	d="
M216.001160,306.005096 
	C203.702271,307.038452 191.483170,307.248962 179.351196,304.159271 
	C148.076035,296.194427 134.594177,270.614136 137.639832,242.083923 
	C141.102753,209.644867 166.535782,186.938568 199.267410,186.064484 
	C205.555801,185.896561 211.866791,186.574493 218.955658,186.946655 
	C224.967529,189.406754 230.678116,191.095856 235.273987,194.356277 
	C239.635666,197.450546 242.830307,202.189835 246.538132,206.205750 
	C257.412720,224.314453 268.287292,242.423141 279.474335,261.052185 
	C282.819580,255.463684 285.888092,250.369003 288.926270,245.256256 
	C299.297302,227.803528 309.723541,210.382843 319.954926,192.848526 
	C321.588257,190.049347 323.311432,188.811356 326.617310,189.034927 
	C331.251068,189.348297 335.921814,189.114059 341.629059,189.114059 
	C340.597870,190.551590 340.218170,191.678284 339.478851,192.014664 
	C334.661133,194.206818 332.771820,198.378326 332.064575,203.137604 
	C331.430786,207.402542 331.048248,211.744431 331.029419,216.054459 
	C330.929901,238.875778 330.909149,261.698090 331.019073,284.519318 
	C331.055084,291.992462 329.818298,300.012604 339.250366,305.591156 
	C328.636139,305.591156 319.786652,305.591156 310.907410,305.591156 
	C310.848419,305.344299 310.621185,304.816132 310.719940,304.745819 
	C316.785828,300.426117 317.113678,294.040985 317.105072,287.458496 
	C317.069122,259.978973 317.089905,232.499390 316.325043,204.583267 
	C315.447235,206.010422 314.548615,207.425217 313.694763,208.866577 
	C301.481415,229.483276 289.280701,250.107468 277.060699,270.720215 
	C274.104340,275.707001 272.546509,275.715485 269.530487,270.796906 
	C258.589844,252.954773 247.660339,235.105850 236.358841,216.748962 
	C232.911133,210.950531 230.153625,205.436203 226.649124,200.446503 
	C223.851715,196.463547 220.689423,192.343842 214.642029,191.958099 
	C193.556381,182.931015 165.871490,193.346130 157.077896,214.603195 
	C147.006470,238.949234 149.776337,262.592621 165.433640,284.048767 
	C171.712158,292.652649 180.242752,298.708954 191.332520,301.183197 
	C196.214066,302.207031 200.737564,303.476654 205.318909,303.740021 
	C218.188919,304.479797 229.183655,300.774139 236.380341,289.190704 
	C239.305054,284.774811 242.229782,280.358917 245.154510,275.943024 
	C245.584351,276.028381 246.014191,276.113739 246.444031,276.199097 
	C245.370255,283.389832 244.296463,290.580566 242.599426,298.135376 
	C233.317825,301.001312 224.659485,303.503204 216.001160,306.005096 
z"/>
<path fill="#1B487F" opacity="1.000000" stroke="none" 
	d="
M236.044525,288.934937 
	C229.183655,300.774139 218.188919,304.479797 205.318909,303.740021 
	C200.737564,303.476654 196.214066,302.207031 191.291626,300.838654 
	C189.960205,299.193420 189.146667,297.917511 188.019104,297.049500 
	C180.010803,290.884552 179.599045,279.112488 187.677155,273.064362 
	C191.175339,270.445251 195.418793,267.858429 199.591125,267.316803 
	C206.788208,266.382538 214.194244,267.057983 221.553238,267.057983 
	C223.426956,260.627716 223.415665,260.637207 219.343597,255.802246 
	C218.709167,255.048950 218.041565,254.233292 217.710358,253.328903 
	C214.484238,244.519531 210.327087,235.897491 208.395157,226.805588 
	C205.817490,214.674728 204.549332,202.087646 214.997009,192.116653 
	C220.689423,192.343842 223.851715,196.463547 226.649124,200.446503 
	C230.153625,205.436203 232.911133,210.950531 236.050385,216.592300 
	C236.865494,222.184998 237.719055,227.411987 238.355194,232.665283 
	C239.434006,241.574265 240.022659,250.400726 235.885376,258.919769 
	C235.015930,260.710022 236.308701,263.439392 235.801285,265.541992 
	C235.004318,268.844330 233.524261,271.981812 231.824020,276.561279 
	C234.590103,274.598083 236.305588,273.380524 237.993637,272.182465 
	C237.205750,277.870850 236.457230,283.275024 236.044525,288.934937 
z"/>
<path fill="#1B487F" opacity="1.000000" stroke="none" 
	d="
M246.862320,206.001373 
	C242.830307,202.189835 239.635666,197.450546 235.273987,194.356277 
	C230.678116,191.095856 224.967529,189.406754 219.370483,186.920319 
	C217.349655,184.243607 215.899796,181.521759 214.019150,179.140060 
	C207.501999,170.886597 212.546448,164.798706 220.707275,164.221725 
	C240.713150,162.807251 258.799164,168.422119 273.995850,181.756180 
	C276.473450,183.930054 278.288025,187.808029 278.726318,191.120972 
	C279.292877,195.403183 274.048157,198.805923 267.779449,198.964249 
	C261.863983,199.113663 255.941788,198.996307 249.927643,198.996307 
	C249.176559,200.859741 248.181534,203.328369 246.862320,206.001373 
z"/>
<path fill="#1D4B81" opacity="1.000000" stroke="none" 
	d="
M215.944870,306.344208 
	C224.659485,303.503204 233.317825,301.001312 242.337997,298.387909 
	C243.593063,300.045715 244.486267,301.815033 245.629013,304.078644 
	C235.981033,311.434998 224.283371,311.283600 212.209167,310.875244 
	C213.435638,309.477936 214.662109,308.080627 215.944870,306.344208 
z"/>
<path fill="#134983" opacity="1.000000" stroke="none" 
	d="
M214.642029,191.958099 
	C204.549332,202.087646 205.817490,214.674728 208.395157,226.805588 
	C210.327087,235.897491 214.484238,244.519531 217.710358,253.328903 
	C218.041565,254.233292 218.709167,255.048950 219.343597,255.802246 
	C223.415665,260.637207 223.426956,260.627716 221.553238,267.057983 
	C214.194244,267.057983 206.788208,266.382538 199.591125,267.316803 
	C195.418793,267.858429 191.175339,270.445251 187.677155,273.064362 
	C179.599045,279.112488 180.010803,290.884552 188.019104,297.049500 
	C189.146667,297.917511 189.960205,299.193420 190.959991,300.625092 
	C180.242752,298.708954 171.712158,292.652649 165.433640,284.048767 
	C149.776337,262.592621 147.006470,238.949234 157.077896,214.603195 
	C165.871490,193.346130 193.556381,182.931015 214.642029,191.958099 
z"/>
</svg>